<svg height="60" viewBox="0 0 60 60" width="60" xmlns="http://www.w3.org/2000/svg"><g fill="none" fill-rule="evenodd"><path d="m.44916138 30c0-16.5685433 13.23036032-30 29.55083862-30s29.5508386 13.4314567 29.5508386 30-13.2303603 30-29.5508386 30-29.55083862-13.4314567-29.55083862-30zm0 0" fill="#0868ac"/><path d="m26.7732425 17.7702357c-1.2565987 2.1654036-1.4130075 4.833787-.687697 7.2108706.6920853 2.2920279 2.1477212 4.3132205 3.9841921 5.7924226.039027.0320078.0788188.0632226.1186105.09524.1725512.1342825.3474093.266995.5272449.3934627.0834107.0577707.168351.114758.2532945.1709652.0397949.0265431.078057.0546371.1178488.0804096.1289542.0835305.2590462.1647171.3910533.2435631.0256366.0155947.0520568.029664.0772891.0445008.1063799.0632322.2142769.1256842.3229418.1857956.0489788.0257629.0983369.051545.1473126.0772856.0845579.0444976.169119.0897753.2552096.1327093.1671913.0843139.3366989.1647203.508877.2412257.0367326.0171934.0746186.0319982.1121128.0484018.1373577.0593312.2758688.1163185.4159095.1709652.0573979.0226389.1159368.0444816.1744757.0663531.1277944.0476216.2567392.0928994.3864456.1358397.0554797.0187475.1101977.0374693.1660597.0546403.1825187.0585542.366169.1132009.5525085.1631631 4.1954538 1.1108405 8.1269873-.312212 10.1571669-3.2951098 0 0-2.2520983 7.6621136-12.0074293 6.0133756-.1894145-.0320078-.3688552-.104609-.5505965-.1623765-.0577741-.0179576-.1144072-.0374725-.1721813-.0562103-.1277945-.0437142-.2544417-.0874348-.3807096-.1350532-.0589245-.0218555-.1186105-.0437141-.177535-.066353-.1392602-.0546467-.2777713-.1124175-.4147496-.1717486-.0371119-.0156298-.0750136-.0304346-.1117242-.0468382-.1714227-.0765022-.3393945-.1569151-.5058366-.2404423-.1185886-.0585766-.19894-.1022971-.2792915-.1452311-.0413245-.0218587-.0826459-.0421697-.1232025-.065576-.1163318-.0640156-.2322623-.1303719-.3466695-.1975052-.0183741-.0109037-.0367138-.021072-.0554797-.0327752-.1327688-.078846-.2632369-.1608161-.3921817-.2451267-.0390269-.0241994-.0757752-.0515131-.1144072-.0772856-.0807307-.0538633-.161847-.1061694-.2414337-.1623765-.1958965-.1381676-.3719143-.2708769-.544478-.4059333-.0386446-.0304442-.0765087-.0616973-.1147865-.0913389-.1722064-.1389382-.3416921-.2802394-.5058367-.4270053-.1702316-.1531323-.3137139-.2905293-.4549019-.4302669-.0375005-.0374725-.0750166-.0741647-.1117272-.1124174-.1453818-.1467627-.2877169-.295866-.4239336-.4488768-.3757259-.3325487-.6894806-.8251684-.9726181-1.2389037-.3106861-.4543447-.5884668-.9313282-.8356429-1.4231485-1.4738658-2.9334632-1.5763935-6.6464012.3129869-9.4200811m-6.0707761.5888126c-2.3003687 4.5364118-1.2664096 10.0602373 1.6117312 14.0652107.1040636.1458098.2103212.2893813.3190865.4332725.0335385.0434872.0673905.0866546.1012425.1288627.0903002.1171083.1828948.2334268.2762543.3481848.0336733.0405934.066585.0804065.1006313.12178.125127.1506541.2529214.2997575.3837814.4457431.1423225.1584627.2685905.2943024.3971497.4285722.0397918.0413767.0803515.08197.1209081.1233467.1010169.104609.2039395.2068741.3083948.308359.0401742.0398131.0799691.0788524.1209112.1186623.1411785.1342666.2838992.2677625.4292935.3981312.1790708.1576824.3152844.2740041.4530275.3895392.0482109.0398163.0971866.0796326.1461623.1194425.1084518.0888928.2178439.1755474.3278629.2615623.0529721.0412489.1065711.0828175.1611104.1240663.1200492.0904916.2410388.1797042.3632821.2679575.0413747.0287782.081809.0597948.1238106.0888928.1266315.0888928.2551437.1755473.3842828.2606031.0485839.0329351.0965409.0671492.1457517.0991251.1780364.1147932.3579535.2279877.5400647.337345.0467033.0274992.0937199.0530799.1401097.0796198.1369752.0812187.2745773.1608385.414687.2372607.076167.0431674.1542147.0821779.2310085.1234268.1147207.0601145.2297548.1218279.3460427.1797042.0436189.0218586.0864762.0421601.1293272.0632322.1480742.0726043.2969133.1428616.4472852.2123387.0355853.0156074.0700203.0319886.1059881.0476248.1748706.0780626.3520137.1530076.5303166.2248285.0459102.0187347.0918267.0366891.1377432.0554269.1626149.0640124.326001.1264645.4912928.1857956.2609268.0929026.446511.1545744.6336122.2131222.0478285.0148559.0956538.0296607.1442503.0444975.1917026.0577708.3822392.1202228.5785244.1655006 5.1840574 1.2029309 10.6555434.1224674 13.737956-3.9742766 0 0-3.6701209 10.0964019-16.3050659 7.7458263-.1989432-.0374725-.3895049-.10851-.5823485-.1678411-.0455309-.01327-.0910618-.0281068-.1362104-.0413768-.1893831-.0601113-.3776409-.1217799-.5639805-.1881394-.2334033-.0834953-.4025316-.1482911-.569353-.2138704-.043619-.0171678-.0872379-.0343612-.1304744-.0522996-.1802306-.0726044-.3589002-.1483295-.5360527-.2271724-.032523-.014824-.0642749-.0296607-.0971866-.0444975-.1545908-.0702605-.3076425-.1428617-.4595408-.2170264-.0394094-.0202983-.0792012-.0390457-.1186137-.058551-.1649094-.0827374-.2605663-.1350403-.356985-.186563-.0746123-.0390329-.1503718-.0772856-.2242193-.1178789-.1365866-.0757252-.2712705-.1530108-.4051896-.2318568-.0497374-.028887-.0998634-.0569681-.1492184-.0858743-.1821112-.1092934-.3623418-.222491-.5398767-.3372491-.050126-.032788-.0994841-.0679071-.1492246-.1014817-.115567-.0765086-.2314975-.1530108-.3447575-.232637-.0791918-.0562167-.1212842-.0874347-.1649-.1194489-.1193753-.0850941-.2376066-.1717487-.3550699-.2599604-.05663-.0437206-.1128745-.0874347-.1691221-.1311521-.1063642-.0827502-.2119668-.1670641-.3164221-.252155-.0524173-.042934-.1052233-.0850909-.1572582-.1280281-.127785-.1077457-.2548147-.2170391-.3795499-.3271128-.0237246-.0210752-.0486027-.0413607-.0727003-.0632322-.1480743-.1319419-.2869678-.2615303-.4243254-.3934626-.0417069-.0390329-.0830314-.0804097-.1247352-.121003-.1029289-.1007015-.2047043-.2021896-.3049501-.3052349-.0413214-.0413767-.0822666-.0835337-.1224376-.1256906-.1293398-.135843-.2571342-.2716763-.3818694-.4106337-.1499612-.167806-.2750757-.3145687-.3978989-.4621148-.034435-.0413767-.0688763-.0835272-.1029226-.1256842-.0914474-.1124014-.1813621-.2248189-.2697503-.3380165-.0367325-.0476185-.0734526-.0952401-.1098121-.1428585-.0990986-.1303751-.19705-.2623074-.2919422-.3957969-.0175905-.0249827-.0367106-.0491916-.05395-.0741647-.118971-.1678188-.2253383-.3255108-.3294144-.4839863-.0321406-.0483986-.0627422-.0983608-.0941243-.1483231-.0753739-.1170955-.1492215-.2341942-.2211538-.3528533-.037115-.0608916-.0727003-.1217832-.1086681-.1826716-.0650428-.1108602-.1285592-.221714-.190546-.333348-.0351998-.0632323-.0700235-.1249073-.1040698-.1896999-.0191358-.0343516-.0397855-.0694963-.0581596-.1053891-.032523-.0601114-.0619774-.1225634-.0933594-.183455-.0489757-.0960234-.0987131-.1920405-.1461623-.2896243-1.9957697-4.0702041-2.3209996-9.0539578.2915597-12.8846628m15.7644965-6.8110608c-1.5408928 2.8397739-.0739728 6.3267388 2.2875175 8.1544775.4140601.3191189.8607184.5979481 1.3293179.8275346.2466807.1208687.5005707.227668.758222.3213572.2009179.0725851.4300458.1493271.6384863.201128 2.6388887.6533942 4.7896817.2021832 6.069538-1.6776442-.3889845.5712803-1.849949 4.452731-7.2364916 3.3910373-.1186136-.0226389-.2326353-.065576-.3474218-.1022683-.0359709-.0108941-.071177-.0233967-.1067529-.0343324-.0814987-.0281036-.1618502-.0553982-.2422016-.0858711-1.9491542-.7290491-3.6193116-2.2669589-4.4342984-4.2272055-.7728913-1.8469242-.6634679-3.9235948.4503569-5.5957711" fill="#fff"/><path d="m59.5508386 30c0 16.5685433-13.2303603 30-29.5508386 30-6.0528788 0-11.6807142-1.8474866-16.3660949-5.0172246l33.8602213-49.16336437c7.3118981 5.46123927 12.0567122 14.25838627 12.0567122 24.18058897zm0 0" fill="#000" fill-opacity=".08"/></g></svg>