<svg height="191" viewBox="0 0 256 191" width="256" xmlns="http://www.w3.org/2000/svg"><g fill="none" fill-rule="evenodd" transform="translate(.000173)"><path d="m77.8911791 183.614864c-.189924-.335864-.3590705-.68306-.5064871-1.039632-1.0224747-2.36547-1.3372952-4.976627-.906345-7.517333h-60.4852096l89.8881126-158.183885 29.509532 51.8749306 8.556964-15.141295-25.724208-45.31725728c-.719745-1.30620326-5.06487-8.29039232-12.555545-8.29039232-3.385466 0-8.2370786 1.46614656-12.182346 8.39702119l-91.06102951 160.10320381c-.77305911 1.386175-4.53172571 8.663594-.79971633 15.114639 1.70606153 2.932292 5.33144204 6.424387 13.32860514 6.424387h76.2662782c-7.9438487 0-11.6225439-3.43878-13.3286054-6.424387z" fill="#01c58e"/><path d="m253.242307 168.500225-74.826789-131.8199039c-.773058-1.3861749-5.091526-8.3970212-12.60886-8.3970212-3.385465 0-8.237078 1.4394894-12.182344 8.370364l-9.676568 16.9539857 8.610279 15.141295 13.328605-23.5916306 74.027072 129.900585h-28.150014c.36021 2.147441.158165 4.351566-.586458 6.397731-.156821.451749-.353063.888833-.586459 1.306202l-.239915.47983c-3.785323 6.451045-11.969087 6.797589-13.568519 6.797589h44.03771c1.62609 0 9.783196-.346544 13.568521-6.797589 1.679404-2.932293 2.878978-7.863877-1.146261-14.741437z" fill="#108775"/><path d="m210.350856 183.241662.239915-.47983c.233396-.417369.429638-.854453.586459-1.306202.744623-2.046165.946668-4.25029.586458-6.397731-.414879-2.316027-1.245775-4.537771-2.452462-6.557674l-56.699887-99.7512804-8.663593-15.141295-8.610279 15.141295-56.6732287 99.7512804c-1.1003771 2.043898-1.8398538 4.262329-2.1858913 6.557674-.4561159 2.533007-.1691029 5.143898.8263739 7.517333.1474159.356573.3165625.703768.506487 1.039632 1.7060615 2.932292 5.3314415 6.424387 13.3286048 6.424387h105.5625523c1.679404 0 9.863168-.346544 13.648491-6.797589zm-66.40311-99.351422 51.821616 91.167659h-103.6165752z" fill="#2f495e"/></g></svg>