<svg height="73" viewBox="0 0 73 73" width="73" xmlns="http://www.w3.org/2000/svg"><g fill="none" fill-rule="nonzero"><rect fill="#fff" height="71" rx="14" stroke="#0c6d87" stroke-width="2" width="71" x="1" y="1"/><g fill="#61dafb" transform="translate(12 15)"><path d="m48.9302846 21.7611789c0-3.2367887-4.0534553-6.3042683-10.2680895-8.2065041 1.4341464-6.33414634.796748-11.37357724-2.0117886-12.98699187-.6473577-.37845529-1.4042683-.55772358-2.2308943-.55772358v2.22093496c.4581301 0 .826626.08963415 1.1353658.25894309 1.3544716.77682927 1.9420732 3.7347561 1.4839431 7.5392276-.1095528.9361789-.2888211 1.9221545-.5079268 2.9280488-1.9520325-.4780488-4.0833333-.8465447-6.324187-1.0855691-1.3445122-1.8424797-2.7388211-3.51565039-4.1430894-4.97967478 3.246748-3.01768293 6.2943089-4.67093496 8.3658536-4.67093496v-2.22093496c-2.7388211 0-6.3241869 1.95203252-9.9493902 5.33821138-3.6252033-3.36626016-7.2105691-5.29837398-9.9493902-5.29837398v2.22093496c2.0615853 0 5.1191056 1.64329268 8.3658536 4.64105691-1.3943089 1.46402439-2.7886179 3.12723573-4.1132114 4.96971543-2.250813.2390244-4.3821138.6075203-6.3341463 1.0955285-.229065-.995935-.398374-1.9619919-.5178862-2.8882114-.4680894-3.80447156.1095529-6.76239839 1.4540651-7.549187.2987804-.1792683.6871951-.25894309 1.1453252-.25894309v-2.22093496c-.8365854 0-1.593496.17926829-2.2508131.55772358-2.79857719 1.61341463-3.42601621 6.64288617-1.9819105 12.95711377-6.19471547 1.9121952-10.22825205 4.9697155-10.22825205 8.1965448 0 3.2367886 4.05345528 6.3042683 10.26808945 8.206504-1.43414636 6.3341464-.79674799 11.3735773 2.0117886 12.9869919.6473577.3784553 1.4042683.5577236 2.2408537.5577236 2.7388211 0 6.3241869-1.9520325 9.9493902-5.3382114 3.6252033 3.3662602 7.2105691 5.298374 9.9493902 5.298374.8365854 0 1.593496-.1792683 2.2508131-.5577236 2.7985772-1.6134146 3.4260162-6.6428862 1.9819105-12.9571138 6.1747968-1.9022358 10.2083334-4.9697155 10.2083334-8.1965447zm-12.9670732-6.6428862c-.368496 1.2847561-.826626 2.6093496-1.3445122 3.9339431-.4083333-.796748-.8365854-1.593496-1.3046748-2.3902439-.4581301-.796748-.9461382-1.5735773-1.4341464-2.3304878 1.4142277.2091463 2.7786586.4680894 4.0833334.7867886zm-4.5613821 10.6067073c-.7768293 1.3445122-1.5735773 2.6193089-2.4002033 3.8044715-1.4839431.1294716-2.9878049.199187-4.501626.199187-1.5038618 0-3.0077236-.0697154-4.4817073-.1892276-.826626-1.1851626-1.6333334-2.45-2.4101626-3.7845529-.7569106-1.3046747-1.4441057-2.6292682-2.0715447-3.9638211.6174796-1.3345528 1.3146341-2.6691057 2.0615853-3.9737805.7768293-1.3445122 1.5735773-2.6193089 2.4002033-3.8044715 1.4839431-.1294716 2.9878049-.199187 4.501626-.199187 1.5038618 0 3.0077236.0697154 4.4817073.1892276.826626 1.1851626 1.6333334 2.45 2.4101626 3.7845529.7569106 1.3046748 1.4441057 2.6292683 2.0715447 3.9638211-.627439 1.3345529-1.3146341 2.6691057-2.0615853 3.9737805zm3.2168699-1.2947154c.5378049 1.3345528.9959349 2.6691056 1.3743902 3.9638211-1.3046748.3186992-2.679065.5876016-4.103252.796748.4880081-.76687.9760163-1.5536586 1.4341463-2.3603659.4581301-.796748.8863822-1.6034553 1.2947155-2.4002032zm-10.0987805 10.626626c-.9262195-.9560976-1.852439-2.021748-2.7686992-3.1869919.8963415.0398374 1.8126016.0697154 2.7388212.0697154.9361788 0 1.8623983-.0199187 2.7686991-.0697154-.8963414 1.1652439-1.8225609 2.2308943-2.7388211 3.1869919zm-7.4097561-5.8660569c-1.4142276-.2091464-2.7786585-.4680895-4.0833333-.7867887.3684959-1.2847561.826626-2.6093496 1.3445122-3.933943.4083333.7967479.8365853 1.5934959 1.3046748 2.3902439.4680894.7967479.9461382 1.5735772 1.4341463 2.3304878zm7.3599594-20.72540655c.9262195.95609757 1.852439 2.02174795 2.7686991 3.18699185-.8963414-.0398374-1.8126016-.0697154-2.7388211-.0697154-.9361789 0-1.8623984.0199187-2.7686992.0697154.8963415-1.1652439 1.822561-2.23089428 2.7388212-3.18699185zm-7.3699187 5.86605695c-.4880082.7668699-.9760163 1.5536585-1.4341464 2.3603658-.4581301.796748-.8863821 1.593496-1.2947154 2.3902439-.5378049-1.3345528-.995935-2.6691057-1.3743903-3.9638211 1.3046748-.3087399 2.6790651-.5776423 4.1032521-.7867886zm-9.01321143 12.4691057c-3.52560976-1.5038618-5.80630081-3.4758131-5.80630081-5.0394309 0-1.5636179 2.28069105-3.5455285 5.80630081-5.0394309.85650406-.368496 1.79268293-.6971545 2.75873983-1.0058943.5676829 1.9520325 1.3146342 3.9837398 2.2408537 6.0652439-.9162602 2.0715447-1.6532521 4.0932926-2.2109756 6.0353658-.98597565-.3087398-1.92215452-.6473577-2.78861793-1.0158536zm5.35813013 14.2319105c-1.3544716-.7768292-1.9420732-3.7347561-1.4839431-7.5392276.1095528-.9361789.2888211-1.9221545.5079268-2.9280488 1.9520325.4780488 4.0833333.8465447 6.324187 1.0855691 1.3445122 1.8424797 2.7388211 3.5156504 4.1430894 4.9796748-3.246748 3.0176829-6.2943089 4.670935-8.3658536 4.670935-.4481708-.0099594-.8266261-.0995935-1.1254065-.2689025zm23.6235772-7.5890244c.4680894 3.8044716-.1095529 6.7623984-1.4540651 7.549187-.2987804.1792683-.6871951.2589431-1.1453252.2589431-2.0615853 0-5.1191056-1.6432927-8.3658536-4.6410569 1.3943089-1.4640244 2.7886179-3.1272358 4.1132114-4.9697154 2.250813-.2390244 4.3821138-.6075204 6.3341463-1.0955285.229065 1.0058943.4083333 1.9719512.5178862 2.8981707zm3.8343496-6.6428861c-.8565041.3684959-1.7926829.6971544-2.7587399 1.0058943-.5676829-1.9520326-1.3146341-3.9837399-2.2408536-6.0652439.9162601-2.0715448 1.653252-4.0932927 2.2109756-6.0353659.9859756.3087398 1.9221545.6473577 2.7985772 1.0158537 3.5256098 1.5038618 5.8063008 3.475813 5.8063008 5.0394309-.0099593 1.5636178-2.2906504 3.5455284-5.8162601 5.0394309z"/><circle cx="24.490041" cy="21.761179" r="4.551423"/></g></g></svg>